<?xml version="1.0" encoding="iso-8859-1"?>
<!-- Generator: Adobe Illustrator 18.1.1, SVG Export Plug-In . SVG Version: 6.00 Build 0)  -->
<svg version="1.1" id="Capa_1" xmlns="http://www.w3.org/2000/svg" xmlns:xlink="http://www.w3.org/1999/xlink" x="0px" y="0px"
	 viewBox="0 0 440.349 440.349" style="enable-background:new 0 0 440.349 440.349;" xml:space="preserve">
<g>
	<g>
		<path style="fill:#010002;" d="M409.916,365.883c-21.63,0-47.398-62.476-51.291-155.134v-72.564
			C358.625,61.989,296.636,0,220.439,0S82.253,61.989,82.253,138.186v47.861c0,102.932-27.361,179.845-51.82,179.845
			c-4.487,0-8.129,3.633-8.129,8.129c0,4.495,3.642,8.129,8.129,8.129h379.483c4.495,0,8.129-3.633,8.129-8.129
			C418.044,369.525,414.411,365.883,409.916,365.883z M58.932,365.883c25.881-32.335,39.586-107.809,39.586-179.845v-47.861
			c0-67.231,54.697-121.929,121.929-121.929s121.929,54.697,121.929,121.929l0.008,72.905
			c2.552,60.997,15.615,125.448,39.058,154.792H58.932V365.883z"/>
		<path style="fill:#010002;" d="M262.171,391.684c-4.495,0-8.129,3.633-8.129,8.129c0,13.16-15.509,24.28-33.872,24.28
			s-33.872-11.12-33.872-24.28c0-4.495-3.642-8.129-8.129-8.129c-4.487,0-8.129,3.633-8.129,8.129
			c0,22.354,22.492,40.537,50.129,40.537s50.129-18.184,50.129-40.537C270.299,395.317,266.666,391.684,262.171,391.684z"/>
	</g>
</g>
<g>
</g>
<g>
</g>
<g>
</g>
<g>
</g>
<g>
</g>
<g>
</g>
<g>
</g>
<g>
</g>
<g>
</g>
<g>
</g>
<g>
</g>
<g>
</g>
<g>
</g>
<g>
</g>
<g>
</g>
</svg>
